<?xml version="1.0" encoding="utf-8"?>
<!-- Generator: Adobe Illustrator 17.0.0, SVG Export Plug-In . SVG Version: 6.00 Build 0)  -->
<!DOCTYPE svg PUBLIC "-//W3C//DTD SVG 1.1//EN" "http://www.w3.org/Graphics/SVG/1.1/DTD/svg11.dtd">
<svg version="1.1" id="Слой_1" xmlns="http://www.w3.org/2000/svg" xmlns:xlink="http://www.w3.org/1999/xlink" x="0px" y="0px"
	 width="44.444px" height="66.667px" viewBox="29.074 1.111 44.444 66.667" enable-background="new 29.074 1.111 44.444 66.667"
	 xml:space="preserve">
<path fill="#FFFFFF" d="M40.473,54.529c-0.602,0-1.192-0.293-1.547-0.833c-1.599-2.424-2.444-5.239-2.444-8.141
	c0-5.593,2.259-9.237,4.989-13.089c0.592-0.834,1.747-1.033,2.581-0.441c0.834,0.591,1.032,1.747,0.441,2.581
	c-2.441,3.444-4.307,6.438-4.307,10.948c0,2.176,0.633,4.285,1.832,6.102c0.563,0.853,0.327,2.002-0.526,2.565
	C41.176,54.43,40.822,54.529,40.473,54.529z"/>
<path fill="#FFFFFF" d="M51.296,9.802c3.257,6.185,6.698,10.972,9.614,15.028c5.17,7.191,8.904,12.387,8.904,20.725
	c0,10.211-8.307,18.519-18.519,18.519s-18.519-8.307-18.519-18.519c0-8.339,3.735-13.534,8.904-20.725
	C44.599,20.773,48.039,15.987,51.296,9.802 M51.296,1.111c-9.259,22.222-22.222,27.778-22.222,44.444
	c0,12.273,9.949,22.222,22.222,22.222c12.273,0,22.222-9.95,22.222-22.222C73.519,28.889,60.556,23.333,51.296,1.111L51.296,1.111z"
	/>
</svg>
