<?xml version="1.0" encoding="utf-8"?>
<!-- Generator: Adobe Illustrator 17.0.0, SVG Export Plug-In . SVG Version: 6.00 Build 0)  -->
<!DOCTYPE svg PUBLIC "-//W3C//DTD SVG 1.1//EN" "http://www.w3.org/Graphics/SVG/1.1/DTD/svg11.dtd">
<svg version="1.1" id="Your_Icon" xmlns="http://www.w3.org/2000/svg" xmlns:xlink="http://www.w3.org/1999/xlink" x="0px" y="0px"
	 width="30.441px" height="74.074px" viewBox="36.076 -2.593 30.441 74.074" enable-background="new 36.076 -2.593 30.441 74.074"
	 xml:space="preserve">
<path fill="#FFFFFF" d="M60.429,44.082V6.54c0-5.036-4.097-9.133-9.133-9.133s-9.133,4.096-9.133,9.133v37.542
	c-3.807,2.844-6.088,7.315-6.088,12.179c0,8.393,6.828,15.221,15.221,15.221s15.221-6.827,15.221-15.221
	C66.517,51.397,64.236,46.927,60.429,44.082z M51.296,67.423c-6.164,0-11.161-4.998-11.161-11.161c0-4.336,2.475-8.093,6.088-9.941
	V6.54c0-2.802,2.271-5.073,5.073-5.073c2.802,0,5.073,2.271,5.073,5.073v39.78c3.613,1.848,6.088,5.604,6.088,9.941
	C62.458,62.425,57.461,67.423,51.296,67.423z"/>
<path fill="#FFFFFF" d="M54.179,48.463v-7.517h-5.767v7.517c-3.173,1.173-5.439,4.217-5.439,7.798c0,4.597,3.726,8.321,8.322,8.321
	s8.322-3.724,8.322-8.321C59.619,52.68,57.353,49.636,54.179,48.463z"/>
</svg>
